<mxfile host="Electron" modified="2024-11-16T10:47:31.548Z" agent="Mozilla/5.0 (Windows NT 10.0; Win64; x64) AppleWebKit/537.36 (KHTML, like Gecko) draw.io/21.2.8 Chrome/112.0.5615.165 Electron/24.2.0 Safari/537.36" etag="kek8B4K0Bq9OgIPaO88m" version="21.2.8" type="device">
  <diagram name="Страница 1" id="rYyTjIG376eK9DmfkyPh">
    <mxGraphModel dx="1063" dy="505" grid="1" gridSize="10" guides="1" tooltips="1" connect="1" arrows="1" fold="1" page="1" pageScale="1" pageWidth="827" pageHeight="1169" math="0" shadow="0">
      <root>
        <mxCell id="0" />
        <mxCell id="1" parent="0" />
        <mxCell id="xDvOf03iOZYoTLvPdePi-1" value="office" style="swimlane;fontStyle=0;childLayout=stackLayout;horizontal=1;startSize=30;horizontalStack=0;resizeParent=1;resizeParentMax=0;resizeLast=0;collapsible=1;marginBottom=0;whiteSpace=wrap;html=1;" parent="1" vertex="1">
          <mxGeometry x="100" y="1650" width="180" height="130" as="geometry" />
        </mxCell>
        <mxCell id="xDvOf03iOZYoTLvPdePi-2" value="id: integer not null serial primary key" style="text;strokeColor=none;fillColor=none;align=left;verticalAlign=middle;spacingLeft=4;spacingRight=4;overflow=hidden;points=[[0,0.5],[1,0.5]];portConstraint=eastwest;rotatable=0;whiteSpace=wrap;html=1;" parent="xDvOf03iOZYoTLvPdePi-1" vertex="1">
          <mxGeometry y="30" width="180" height="40" as="geometry" />
        </mxCell>
        <mxCell id="xDvOf03iOZYoTLvPdePi-3" value="address: text not null" style="text;strokeColor=none;fillColor=none;align=left;verticalAlign=middle;spacingLeft=4;spacingRight=4;overflow=hidden;points=[[0,0.5],[1,0.5]];portConstraint=eastwest;rotatable=0;whiteSpace=wrap;html=1;" parent="xDvOf03iOZYoTLvPdePi-1" vertex="1">
          <mxGeometry y="70" width="180" height="30" as="geometry" />
        </mxCell>
        <mxCell id="xDvOf03iOZYoTLvPdePi-4" value="name: text not null" style="text;strokeColor=none;fillColor=none;align=left;verticalAlign=middle;spacingLeft=4;spacingRight=4;overflow=hidden;points=[[0,0.5],[1,0.5]];portConstraint=eastwest;rotatable=0;whiteSpace=wrap;html=1;" parent="xDvOf03iOZYoTLvPdePi-1" vertex="1">
          <mxGeometry y="100" width="180" height="30" as="geometry" />
        </mxCell>
        <mxCell id="xDvOf03iOZYoTLvPdePi-5" value="workplace" style="swimlane;fontStyle=0;childLayout=stackLayout;horizontal=1;startSize=30;horizontalStack=0;resizeParent=1;resizeParentMax=0;resizeLast=0;collapsible=1;marginBottom=0;whiteSpace=wrap;html=1;" parent="1" vertex="1">
          <mxGeometry x="650" y="1630" width="180" height="150" as="geometry" />
        </mxCell>
        <mxCell id="xDvOf03iOZYoTLvPdePi-6" value="id: integer not null serial primary key" style="text;strokeColor=none;fillColor=none;align=left;verticalAlign=middle;spacingLeft=4;spacingRight=4;overflow=hidden;points=[[0,0.5],[1,0.5]];portConstraint=eastwest;rotatable=0;whiteSpace=wrap;html=1;" parent="xDvOf03iOZYoTLvPdePi-5" vertex="1">
          <mxGeometry y="30" width="180" height="40" as="geometry" />
        </mxCell>
        <mxCell id="xDvOf03iOZYoTLvPdePi-7" value="room_id: integer not null references room(id)" style="text;strokeColor=none;fillColor=none;align=left;verticalAlign=middle;spacingLeft=4;spacingRight=4;overflow=hidden;points=[[0,0.5],[1,0.5]];portConstraint=eastwest;rotatable=0;whiteSpace=wrap;html=1;" parent="xDvOf03iOZYoTLvPdePi-5" vertex="1">
          <mxGeometry y="70" width="180" height="40" as="geometry" />
        </mxCell>
        <mxCell id="xDvOf03iOZYoTLvPdePi-8" value="number_of_monitors: integer not null" style="text;strokeColor=none;fillColor=none;align=left;verticalAlign=middle;spacingLeft=4;spacingRight=4;overflow=hidden;points=[[0,0.5],[1,0.5]];portConstraint=eastwest;rotatable=0;whiteSpace=wrap;html=1;" parent="xDvOf03iOZYoTLvPdePi-5" vertex="1">
          <mxGeometry y="110" width="180" height="40" as="geometry" />
        </mxCell>
        <mxCell id="xDvOf03iOZYoTLvPdePi-9" value="meeting_room" style="swimlane;fontStyle=0;childLayout=stackLayout;horizontal=1;startSize=30;horizontalStack=0;resizeParent=1;resizeParentMax=0;resizeLast=0;collapsible=1;marginBottom=0;whiteSpace=wrap;html=1;" parent="1" vertex="1">
          <mxGeometry x="650" y="1120" width="180" height="140" as="geometry" />
        </mxCell>
        <mxCell id="xDvOf03iOZYoTLvPdePi-10" value="id: integer not null serial primary key" style="text;strokeColor=none;fillColor=none;align=left;verticalAlign=middle;spacingLeft=4;spacingRight=4;overflow=hidden;points=[[0,0.5],[1,0.5]];portConstraint=eastwest;rotatable=0;whiteSpace=wrap;html=1;" parent="xDvOf03iOZYoTLvPdePi-9" vertex="1">
          <mxGeometry y="30" width="180" height="40" as="geometry" />
        </mxCell>
        <mxCell id="xDvOf03iOZYoTLvPdePi-11" value="room_id: integer not null references room(id)" style="text;strokeColor=none;fillColor=none;align=left;verticalAlign=middle;spacingLeft=4;spacingRight=4;overflow=hidden;points=[[0,0.5],[1,0.5]];portConstraint=eastwest;rotatable=0;whiteSpace=wrap;html=1;" parent="xDvOf03iOZYoTLvPdePi-9" vertex="1">
          <mxGeometry y="70" width="180" height="40" as="geometry" />
        </mxCell>
        <mxCell id="xDvOf03iOZYoTLvPdePi-12" value="name: text not null" style="text;strokeColor=none;fillColor=none;align=left;verticalAlign=middle;spacingLeft=4;spacingRight=4;overflow=hidden;points=[[0,0.5],[1,0.5]];portConstraint=eastwest;rotatable=0;whiteSpace=wrap;html=1;" parent="xDvOf03iOZYoTLvPdePi-9" vertex="1">
          <mxGeometry y="110" width="180" height="30" as="geometry" />
        </mxCell>
        <mxCell id="xDvOf03iOZYoTLvPdePi-13" value="employee" style="swimlane;fontStyle=0;childLayout=stackLayout;horizontal=1;startSize=30;horizontalStack=0;resizeParent=1;resizeParentMax=0;resizeLast=0;collapsible=1;marginBottom=0;whiteSpace=wrap;html=1;" parent="1" vertex="1">
          <mxGeometry x="1250" y="1740" width="180" height="190" as="geometry" />
        </mxCell>
        <mxCell id="xDvOf03iOZYoTLvPdePi-14" value="id: integer not null serial primary key" style="text;strokeColor=none;fillColor=none;align=left;verticalAlign=middle;spacingLeft=4;spacingRight=4;overflow=hidden;points=[[0,0.5],[1,0.5]];portConstraint=eastwest;rotatable=0;whiteSpace=wrap;html=1;" parent="xDvOf03iOZYoTLvPdePi-13" vertex="1">
          <mxGeometry y="30" width="180" height="40" as="geometry" />
        </mxCell>
        <mxCell id="xDvOf03iOZYoTLvPdePi-15" value="user_id: integer not null references user(id)" style="text;strokeColor=none;fillColor=none;align=left;verticalAlign=middle;spacingLeft=4;spacingRight=4;overflow=hidden;points=[[0,0.5],[1,0.5]];portConstraint=eastwest;rotatable=0;whiteSpace=wrap;html=1;" parent="xDvOf03iOZYoTLvPdePi-13" vertex="1">
          <mxGeometry y="70" width="180" height="40" as="geometry" />
        </mxCell>
        <mxCell id="xDvOf03iOZYoTLvPdePi-16" value="employee_group_id: integer not null references employee_group(id)" style="text;strokeColor=none;fillColor=none;align=left;verticalAlign=middle;spacingLeft=4;spacingRight=4;overflow=hidden;points=[[0,0.5],[1,0.5]];portConstraint=eastwest;rotatable=0;whiteSpace=wrap;html=1;" parent="xDvOf03iOZYoTLvPdePi-13" vertex="1">
          <mxGeometry y="110" width="180" height="50" as="geometry" />
        </mxCell>
        <mxCell id="xDvOf03iOZYoTLvPdePi-17" value="full_name: text not null" style="text;strokeColor=none;fillColor=none;align=left;verticalAlign=middle;spacingLeft=4;spacingRight=4;overflow=hidden;points=[[0,0.5],[1,0.5]];portConstraint=eastwest;rotatable=0;whiteSpace=wrap;html=1;" parent="xDvOf03iOZYoTLvPdePi-13" vertex="1">
          <mxGeometry y="160" width="180" height="30" as="geometry" />
        </mxCell>
        <mxCell id="xDvOf03iOZYoTLvPdePi-18" value="employee_group" style="swimlane;fontStyle=0;childLayout=stackLayout;horizontal=1;startSize=30;horizontalStack=0;resizeParent=1;resizeParentMax=0;resizeLast=0;collapsible=1;marginBottom=0;whiteSpace=wrap;html=1;" parent="1" vertex="1">
          <mxGeometry x="760" y="1970" width="180" height="100" as="geometry" />
        </mxCell>
        <mxCell id="xDvOf03iOZYoTLvPdePi-19" value="id: integer not null serial primary key" style="text;strokeColor=none;fillColor=none;align=left;verticalAlign=middle;spacingLeft=4;spacingRight=4;overflow=hidden;points=[[0,0.5],[1,0.5]];portConstraint=eastwest;rotatable=0;whiteSpace=wrap;html=1;" parent="xDvOf03iOZYoTLvPdePi-18" vertex="1">
          <mxGeometry y="30" width="180" height="40" as="geometry" />
        </mxCell>
        <mxCell id="xDvOf03iOZYoTLvPdePi-20" value="name: text not null" style="text;strokeColor=none;fillColor=none;align=left;verticalAlign=middle;spacingLeft=4;spacingRight=4;overflow=hidden;points=[[0,0.5],[1,0.5]];portConstraint=eastwest;rotatable=0;whiteSpace=wrap;html=1;" parent="xDvOf03iOZYoTLvPdePi-18" vertex="1">
          <mxGeometry y="70" width="180" height="30" as="geometry" />
        </mxCell>
        <mxCell id="xDvOf03iOZYoTLvPdePi-21" value="office_employee_group" style="swimlane;fontStyle=0;childLayout=stackLayout;horizontal=1;startSize=30;horizontalStack=0;resizeParent=1;resizeParentMax=0;resizeLast=0;collapsible=1;marginBottom=0;whiteSpace=wrap;html=1;" parent="1" vertex="1">
          <mxGeometry x="360" y="1880" width="180" height="180" as="geometry" />
        </mxCell>
        <mxCell id="xDvOf03iOZYoTLvPdePi-22" value="id: integer not null serial primary key" style="text;strokeColor=none;fillColor=none;align=left;verticalAlign=middle;spacingLeft=4;spacingRight=4;overflow=hidden;points=[[0,0.5],[1,0.5]];portConstraint=eastwest;rotatable=0;whiteSpace=wrap;html=1;" parent="xDvOf03iOZYoTLvPdePi-21" vertex="1">
          <mxGeometry y="30" width="180" height="40" as="geometry" />
        </mxCell>
        <mxCell id="xDvOf03iOZYoTLvPdePi-23" value="office_id: integer not null references office(id)" style="text;strokeColor=none;fillColor=none;align=left;verticalAlign=middle;spacingLeft=4;spacingRight=4;overflow=hidden;points=[[0,0.5],[1,0.5]];portConstraint=eastwest;rotatable=0;whiteSpace=wrap;html=1;" parent="xDvOf03iOZYoTLvPdePi-21" vertex="1">
          <mxGeometry y="70" width="180" height="40" as="geometry" />
        </mxCell>
        <mxCell id="xDvOf03iOZYoTLvPdePi-24" value="employee_group_id: integer not null references employee_group(id)" style="text;strokeColor=none;fillColor=none;align=left;verticalAlign=middle;spacingLeft=4;spacingRight=4;overflow=hidden;points=[[0,0.5],[1,0.5]];portConstraint=eastwest;rotatable=0;whiteSpace=wrap;html=1;" parent="xDvOf03iOZYoTLvPdePi-21" vertex="1">
          <mxGeometry y="110" width="180" height="70" as="geometry" />
        </mxCell>
        <mxCell id="xDvOf03iOZYoTLvPdePi-31" value="workplace_booking" style="swimlane;fontStyle=0;childLayout=stackLayout;horizontal=1;startSize=30;horizontalStack=0;resizeParent=1;resizeParentMax=0;resizeLast=0;collapsible=1;marginBottom=0;whiteSpace=wrap;html=1;" parent="1" vertex="1">
          <mxGeometry x="930" y="1700" width="180" height="180" as="geometry" />
        </mxCell>
        <mxCell id="xDvOf03iOZYoTLvPdePi-32" value="id: integer not null serial primary key" style="text;strokeColor=none;fillColor=none;align=left;verticalAlign=middle;spacingLeft=4;spacingRight=4;overflow=hidden;points=[[0,0.5],[1,0.5]];portConstraint=eastwest;rotatable=0;whiteSpace=wrap;html=1;" parent="xDvOf03iOZYoTLvPdePi-31" vertex="1">
          <mxGeometry y="30" width="180" height="40" as="geometry" />
        </mxCell>
        <mxCell id="xDvOf03iOZYoTLvPdePi-33" value="employee_id: integer not null references employee(id)" style="text;strokeColor=none;fillColor=none;align=left;verticalAlign=middle;spacingLeft=4;spacingRight=4;overflow=hidden;points=[[0,0.5],[1,0.5]];portConstraint=eastwest;rotatable=0;whiteSpace=wrap;html=1;" parent="xDvOf03iOZYoTLvPdePi-31" vertex="1">
          <mxGeometry y="70" width="180" height="40" as="geometry" />
        </mxCell>
        <mxCell id="xDvOf03iOZYoTLvPdePi-34" value="workplace_id: integer not null references workplace(id)" style="text;strokeColor=none;fillColor=none;align=left;verticalAlign=middle;spacingLeft=4;spacingRight=4;overflow=hidden;points=[[0,0.5],[1,0.5]];portConstraint=eastwest;rotatable=0;whiteSpace=wrap;html=1;" parent="xDvOf03iOZYoTLvPdePi-31" vertex="1">
          <mxGeometry y="110" width="180" height="40" as="geometry" />
        </mxCell>
        <mxCell id="xDvOf03iOZYoTLvPdePi-35" value="date: date not null" style="text;strokeColor=none;fillColor=none;align=left;verticalAlign=middle;spacingLeft=4;spacingRight=4;overflow=hidden;points=[[0,0.5],[1,0.5]];portConstraint=eastwest;rotatable=0;whiteSpace=wrap;html=1;" parent="xDvOf03iOZYoTLvPdePi-31" vertex="1">
          <mxGeometry y="150" width="180" height="30" as="geometry" />
        </mxCell>
        <mxCell id="xDvOf03iOZYoTLvPdePi-36" value="meeting_room_booking" style="swimlane;fontStyle=0;childLayout=stackLayout;horizontal=1;startSize=30;horizontalStack=0;resizeParent=1;resizeParentMax=0;resizeLast=0;collapsible=1;marginBottom=0;whiteSpace=wrap;html=1;" parent="1" vertex="1">
          <mxGeometry x="1140" y="1190" width="180" height="280" as="geometry" />
        </mxCell>
        <mxCell id="xDvOf03iOZYoTLvPdePi-37" value="id: integer not null serial primary key" style="text;strokeColor=none;fillColor=none;align=left;verticalAlign=middle;spacingLeft=4;spacingRight=4;overflow=hidden;points=[[0,0.5],[1,0.5]];portConstraint=eastwest;rotatable=0;whiteSpace=wrap;html=1;" parent="xDvOf03iOZYoTLvPdePi-36" vertex="1">
          <mxGeometry y="30" width="180" height="40" as="geometry" />
        </mxCell>
        <mxCell id="xDvOf03iOZYoTLvPdePi-38" value="employee_id: integer not null references employee(id)" style="text;strokeColor=none;fillColor=none;align=left;verticalAlign=middle;spacingLeft=4;spacingRight=4;overflow=hidden;points=[[0,0.5],[1,0.5]];portConstraint=eastwest;rotatable=0;whiteSpace=wrap;html=1;" parent="xDvOf03iOZYoTLvPdePi-36" vertex="1">
          <mxGeometry y="70" width="180" height="40" as="geometry" />
        </mxCell>
        <mxCell id="xDvOf03iOZYoTLvPdePi-39" value="meeting_room_id: integer not null references meeting_room(id)" style="text;strokeColor=none;fillColor=none;align=left;verticalAlign=middle;spacingLeft=4;spacingRight=4;overflow=hidden;points=[[0,0.5],[1,0.5]];portConstraint=eastwest;rotatable=0;whiteSpace=wrap;html=1;" parent="xDvOf03iOZYoTLvPdePi-36" vertex="1">
          <mxGeometry y="110" width="180" height="50" as="geometry" />
        </mxCell>
        <mxCell id="xDvOf03iOZYoTLvPdePi-40" value="date: date not null" style="text;strokeColor=none;fillColor=none;align=left;verticalAlign=middle;spacingLeft=4;spacingRight=4;overflow=hidden;points=[[0,0.5],[1,0.5]];portConstraint=eastwest;rotatable=0;whiteSpace=wrap;html=1;" parent="xDvOf03iOZYoTLvPdePi-36" vertex="1">
          <mxGeometry y="160" width="180" height="30" as="geometry" />
        </mxCell>
        <mxCell id="xDvOf03iOZYoTLvPdePi-41" value="&amp;nbsp;start_time: time not null" style="text;html=1;align=left;verticalAlign=middle;resizable=0;points=[];autosize=1;strokeColor=none;fillColor=none;" parent="xDvOf03iOZYoTLvPdePi-36" vertex="1">
          <mxGeometry y="190" width="180" height="30" as="geometry" />
        </mxCell>
        <mxCell id="xDvOf03iOZYoTLvPdePi-42" value="&amp;nbsp;end_time: time not null" style="text;html=1;align=left;verticalAlign=middle;resizable=0;points=[];autosize=1;strokeColor=none;fillColor=none;" parent="xDvOf03iOZYoTLvPdePi-36" vertex="1">
          <mxGeometry y="220" width="180" height="30" as="geometry" />
        </mxCell>
        <mxCell id="xDvOf03iOZYoTLvPdePi-43" value="description: text not null" style="text;strokeColor=none;fillColor=none;align=left;verticalAlign=middle;spacingLeft=4;spacingRight=4;overflow=hidden;points=[[0,0.5],[1,0.5]];portConstraint=eastwest;rotatable=0;whiteSpace=wrap;html=1;" parent="xDvOf03iOZYoTLvPdePi-36" vertex="1">
          <mxGeometry y="250" width="180" height="30" as="geometry" />
        </mxCell>
        <mxCell id="xDvOf03iOZYoTLvPdePi-50" value="user" style="swimlane;fontStyle=0;childLayout=stackLayout;horizontal=1;startSize=30;horizontalStack=0;resizeParent=1;resizeParentMax=0;resizeLast=0;collapsible=1;marginBottom=0;whiteSpace=wrap;html=1;" parent="1" vertex="1">
          <mxGeometry x="1570" y="1780" width="180" height="160" as="geometry" />
        </mxCell>
        <mxCell id="xDvOf03iOZYoTLvPdePi-51" value="id: integer not null serial primary key" style="text;strokeColor=none;fillColor=none;align=left;verticalAlign=middle;spacingLeft=4;spacingRight=4;overflow=hidden;points=[[0,0.5],[1,0.5]];portConstraint=eastwest;rotatable=0;whiteSpace=wrap;html=1;" parent="xDvOf03iOZYoTLvPdePi-50" vertex="1">
          <mxGeometry y="30" width="180" height="40" as="geometry" />
        </mxCell>
        <mxCell id="xDvOf03iOZYoTLvPdePi-52" value="login: text not null" style="text;strokeColor=none;fillColor=none;align=left;verticalAlign=middle;spacingLeft=4;spacingRight=4;overflow=hidden;points=[[0,0.5],[1,0.5]];portConstraint=eastwest;rotatable=0;whiteSpace=wrap;html=1;" parent="xDvOf03iOZYoTLvPdePi-50" vertex="1">
          <mxGeometry y="70" width="180" height="30" as="geometry" />
        </mxCell>
        <mxCell id="xDvOf03iOZYoTLvPdePi-53" value="password: text not null" style="text;strokeColor=none;fillColor=none;align=left;verticalAlign=middle;spacingLeft=4;spacingRight=4;overflow=hidden;points=[[0,0.5],[1,0.5]];portConstraint=eastwest;rotatable=0;whiteSpace=wrap;html=1;" parent="xDvOf03iOZYoTLvPdePi-50" vertex="1">
          <mxGeometry y="100" width="180" height="30" as="geometry" />
        </mxCell>
        <mxCell id="xDvOf03iOZYoTLvPdePi-54" value="account_type: text not null" style="text;strokeColor=none;fillColor=none;align=left;verticalAlign=middle;spacingLeft=4;spacingRight=4;overflow=hidden;points=[[0,0.5],[1,0.5]];portConstraint=eastwest;rotatable=0;whiteSpace=wrap;html=1;" parent="xDvOf03iOZYoTLvPdePi-50" vertex="1">
          <mxGeometry y="130" width="180" height="30" as="geometry" />
        </mxCell>
        <mxCell id="xDvOf03iOZYoTLvPdePi-55" value="admin" style="swimlane;fontStyle=0;childLayout=stackLayout;horizontal=1;startSize=30;horizontalStack=0;resizeParent=1;resizeParentMax=0;resizeLast=0;collapsible=1;marginBottom=0;whiteSpace=wrap;html=1;" parent="1" vertex="1">
          <mxGeometry x="1570" y="1540" width="180" height="140" as="geometry" />
        </mxCell>
        <mxCell id="xDvOf03iOZYoTLvPdePi-56" value="id: integer not null serial primary key" style="text;strokeColor=none;fillColor=none;align=left;verticalAlign=middle;spacingLeft=4;spacingRight=4;overflow=hidden;points=[[0,0.5],[1,0.5]];portConstraint=eastwest;rotatable=0;whiteSpace=wrap;html=1;" parent="xDvOf03iOZYoTLvPdePi-55" vertex="1">
          <mxGeometry y="30" width="180" height="40" as="geometry" />
        </mxCell>
        <mxCell id="xDvOf03iOZYoTLvPdePi-57" value="user_id: integer not null references user(id)" style="text;strokeColor=none;fillColor=none;align=left;verticalAlign=middle;spacingLeft=4;spacingRight=4;overflow=hidden;points=[[0,0.5],[1,0.5]];portConstraint=eastwest;rotatable=0;whiteSpace=wrap;html=1;" parent="xDvOf03iOZYoTLvPdePi-55" vertex="1">
          <mxGeometry y="70" width="180" height="40" as="geometry" />
        </mxCell>
        <mxCell id="xDvOf03iOZYoTLvPdePi-58" value="full_name: text not null" style="text;strokeColor=none;fillColor=none;align=left;verticalAlign=middle;spacingLeft=4;spacingRight=4;overflow=hidden;points=[[0,0.5],[1,0.5]];portConstraint=eastwest;rotatable=0;whiteSpace=wrap;html=1;" parent="xDvOf03iOZYoTLvPdePi-55" vertex="1">
          <mxGeometry y="110" width="180" height="30" as="geometry" />
        </mxCell>
        <mxCell id="xDvOf03iOZYoTLvPdePi-59" value="workplace_visual" style="swimlane;fontStyle=0;childLayout=stackLayout;horizontal=1;startSize=30;horizontalStack=0;resizeParent=1;resizeParentMax=0;resizeLast=0;collapsible=1;marginBottom=0;whiteSpace=wrap;html=1;" parent="1" vertex="1">
          <mxGeometry x="930" y="1410" width="180" height="190" as="geometry" />
        </mxCell>
        <mxCell id="xDvOf03iOZYoTLvPdePi-60" value="workplace_id: integer not null references workplace(id)" style="text;strokeColor=none;fillColor=none;align=left;verticalAlign=middle;spacingLeft=4;spacingRight=4;overflow=hidden;points=[[0,0.5],[1,0.5]];portConstraint=eastwest;rotatable=0;whiteSpace=wrap;html=1;" parent="xDvOf03iOZYoTLvPdePi-59" vertex="1">
          <mxGeometry y="30" width="180" height="40" as="geometry" />
        </mxCell>
        <mxCell id="xDvOf03iOZYoTLvPdePi-61" value="x: double precision not null" style="text;strokeColor=none;fillColor=none;align=left;verticalAlign=middle;spacingLeft=4;spacingRight=4;overflow=hidden;points=[[0,0.5],[1,0.5]];portConstraint=eastwest;rotatable=0;whiteSpace=wrap;html=1;" parent="xDvOf03iOZYoTLvPdePi-59" vertex="1">
          <mxGeometry y="70" width="180" height="30" as="geometry" />
        </mxCell>
        <mxCell id="xDvOf03iOZYoTLvPdePi-62" value="y: double precision not null" style="text;strokeColor=none;fillColor=none;align=left;verticalAlign=middle;spacingLeft=4;spacingRight=4;overflow=hidden;points=[[0,0.5],[1,0.5]];portConstraint=eastwest;rotatable=0;whiteSpace=wrap;html=1;" parent="xDvOf03iOZYoTLvPdePi-59" vertex="1">
          <mxGeometry y="100" width="180" height="30" as="geometry" />
        </mxCell>
        <mxCell id="xDvOf03iOZYoTLvPdePi-63" value="width: double precision not null" style="text;strokeColor=none;fillColor=none;align=left;verticalAlign=middle;spacingLeft=4;spacingRight=4;overflow=hidden;points=[[0,0.5],[1,0.5]];portConstraint=eastwest;rotatable=0;whiteSpace=wrap;html=1;" parent="xDvOf03iOZYoTLvPdePi-59" vertex="1">
          <mxGeometry y="130" width="180" height="30" as="geometry" />
        </mxCell>
        <mxCell id="xDvOf03iOZYoTLvPdePi-64" value="height: double precision not null" style="text;strokeColor=none;fillColor=none;align=left;verticalAlign=middle;spacingLeft=4;spacingRight=4;overflow=hidden;points=[[0,0.5],[1,0.5]];portConstraint=eastwest;rotatable=0;whiteSpace=wrap;html=1;" parent="xDvOf03iOZYoTLvPdePi-59" vertex="1">
          <mxGeometry y="160" width="180" height="30" as="geometry" />
        </mxCell>
        <mxCell id="xDvOf03iOZYoTLvPdePi-68" value="meeting_room_visual" style="swimlane;fontStyle=0;childLayout=stackLayout;horizontal=1;startSize=30;horizontalStack=0;resizeParent=1;resizeParentMax=0;resizeLast=0;collapsible=1;marginBottom=0;whiteSpace=wrap;html=1;" parent="1" vertex="1">
          <mxGeometry x="1140" y="950" width="180" height="210" as="geometry" />
        </mxCell>
        <mxCell id="xDvOf03iOZYoTLvPdePi-69" value="meeting_room_id: integer not null references meeting_room(id)" style="text;strokeColor=none;fillColor=none;align=left;verticalAlign=middle;spacingLeft=4;spacingRight=4;overflow=hidden;points=[[0,0.5],[1,0.5]];portConstraint=eastwest;rotatable=0;whiteSpace=wrap;html=1;" parent="xDvOf03iOZYoTLvPdePi-68" vertex="1">
          <mxGeometry y="30" width="180" height="60" as="geometry" />
        </mxCell>
        <mxCell id="xDvOf03iOZYoTLvPdePi-70" value="x: double precision not null" style="text;strokeColor=none;fillColor=none;align=left;verticalAlign=middle;spacingLeft=4;spacingRight=4;overflow=hidden;points=[[0,0.5],[1,0.5]];portConstraint=eastwest;rotatable=0;whiteSpace=wrap;html=1;" parent="xDvOf03iOZYoTLvPdePi-68" vertex="1">
          <mxGeometry y="90" width="180" height="30" as="geometry" />
        </mxCell>
        <mxCell id="xDvOf03iOZYoTLvPdePi-71" value="y: double precision not null" style="text;strokeColor=none;fillColor=none;align=left;verticalAlign=middle;spacingLeft=4;spacingRight=4;overflow=hidden;points=[[0,0.5],[1,0.5]];portConstraint=eastwest;rotatable=0;whiteSpace=wrap;html=1;" parent="xDvOf03iOZYoTLvPdePi-68" vertex="1">
          <mxGeometry y="120" width="180" height="30" as="geometry" />
        </mxCell>
        <mxCell id="xDvOf03iOZYoTLvPdePi-72" value="width: double precision not null" style="text;strokeColor=none;fillColor=none;align=left;verticalAlign=middle;spacingLeft=4;spacingRight=4;overflow=hidden;points=[[0,0.5],[1,0.5]];portConstraint=eastwest;rotatable=0;whiteSpace=wrap;html=1;" parent="xDvOf03iOZYoTLvPdePi-68" vertex="1">
          <mxGeometry y="150" width="180" height="30" as="geometry" />
        </mxCell>
        <mxCell id="xDvOf03iOZYoTLvPdePi-73" value="height: double precision not null" style="text;strokeColor=none;fillColor=none;align=left;verticalAlign=middle;spacingLeft=4;spacingRight=4;overflow=hidden;points=[[0,0.5],[1,0.5]];portConstraint=eastwest;rotatable=0;whiteSpace=wrap;html=1;" parent="xDvOf03iOZYoTLvPdePi-68" vertex="1">
          <mxGeometry y="180" width="180" height="30" as="geometry" />
        </mxCell>
        <mxCell id="xDvOf03iOZYoTLvPdePi-74" value="room_wall" style="swimlane;fontStyle=0;childLayout=stackLayout;horizontal=1;startSize=30;horizontalStack=0;resizeParent=1;resizeParentMax=0;resizeLast=0;collapsible=1;marginBottom=0;whiteSpace=wrap;html=1;" parent="1" vertex="1">
          <mxGeometry x="360" y="1150" width="180" height="180" as="geometry" />
        </mxCell>
        <mxCell id="xDvOf03iOZYoTLvPdePi-75" value="room_id: integer not null references room(id)" style="text;strokeColor=none;fillColor=none;align=left;verticalAlign=middle;spacingLeft=4;spacingRight=4;overflow=hidden;points=[[0,0.5],[1,0.5]];portConstraint=eastwest;rotatable=0;whiteSpace=wrap;html=1;" parent="xDvOf03iOZYoTLvPdePi-74" vertex="1">
          <mxGeometry y="30" width="180" height="30" as="geometry" />
        </mxCell>
        <mxCell id="xDvOf03iOZYoTLvPdePi-76" value="x1: double precision not null" style="text;strokeColor=none;fillColor=none;align=left;verticalAlign=middle;spacingLeft=4;spacingRight=4;overflow=hidden;points=[[0,0.5],[1,0.5]];portConstraint=eastwest;rotatable=0;whiteSpace=wrap;html=1;" parent="xDvOf03iOZYoTLvPdePi-74" vertex="1">
          <mxGeometry y="60" width="180" height="30" as="geometry" />
        </mxCell>
        <mxCell id="IWR8yfnEkg_WurGMAJqd-2" value="y1: double precision not null" style="text;strokeColor=none;fillColor=none;align=left;verticalAlign=middle;spacingLeft=4;spacingRight=4;overflow=hidden;points=[[0,0.5],[1,0.5]];portConstraint=eastwest;rotatable=0;whiteSpace=wrap;html=1;" parent="xDvOf03iOZYoTLvPdePi-74" vertex="1">
          <mxGeometry y="90" width="180" height="30" as="geometry" />
        </mxCell>
        <mxCell id="IWR8yfnEkg_WurGMAJqd-1" value="x2: double precision not null" style="text;strokeColor=none;fillColor=none;align=left;verticalAlign=middle;spacingLeft=4;spacingRight=4;overflow=hidden;points=[[0,0.5],[1,0.5]];portConstraint=eastwest;rotatable=0;whiteSpace=wrap;html=1;" parent="xDvOf03iOZYoTLvPdePi-74" vertex="1">
          <mxGeometry y="120" width="180" height="30" as="geometry" />
        </mxCell>
        <mxCell id="IWR8yfnEkg_WurGMAJqd-3" value="y2: double precision not null" style="text;strokeColor=none;fillColor=none;align=left;verticalAlign=middle;spacingLeft=4;spacingRight=4;overflow=hidden;points=[[0,0.5],[1,0.5]];portConstraint=eastwest;rotatable=0;whiteSpace=wrap;html=1;" parent="xDvOf03iOZYoTLvPdePi-74" vertex="1">
          <mxGeometry y="150" width="180" height="30" as="geometry" />
        </mxCell>
        <mxCell id="xDvOf03iOZYoTLvPdePi-80" value="room" style="swimlane;fontStyle=0;childLayout=stackLayout;horizontal=1;startSize=30;horizontalStack=0;resizeParent=1;resizeParentMax=0;resizeLast=0;collapsible=1;marginBottom=0;whiteSpace=wrap;html=1;" parent="1" vertex="1">
          <mxGeometry x="360" y="1430" width="180" height="140" as="geometry" />
        </mxCell>
        <mxCell id="xDvOf03iOZYoTLvPdePi-81" value="id: integer not null serial primary key" style="text;strokeColor=none;fillColor=none;align=left;verticalAlign=middle;spacingLeft=4;spacingRight=4;overflow=hidden;points=[[0,0.5],[1,0.5]];portConstraint=eastwest;rotatable=0;whiteSpace=wrap;html=1;" parent="xDvOf03iOZYoTLvPdePi-80" vertex="1">
          <mxGeometry y="30" width="180" height="40" as="geometry" />
        </mxCell>
        <mxCell id="xDvOf03iOZYoTLvPdePi-82" value="office_id: integer not null references office(id)" style="text;strokeColor=none;fillColor=none;align=left;verticalAlign=middle;spacingLeft=4;spacingRight=4;overflow=hidden;points=[[0,0.5],[1,0.5]];portConstraint=eastwest;rotatable=0;whiteSpace=wrap;html=1;" parent="xDvOf03iOZYoTLvPdePi-80" vertex="1">
          <mxGeometry y="70" width="180" height="40" as="geometry" />
        </mxCell>
        <mxCell id="xDvOf03iOZYoTLvPdePi-83" value="name: text not null" style="text;strokeColor=none;fillColor=none;align=left;verticalAlign=middle;spacingLeft=4;spacingRight=4;overflow=hidden;points=[[0,0.5],[1,0.5]];portConstraint=eastwest;rotatable=0;whiteSpace=wrap;html=1;" parent="xDvOf03iOZYoTLvPdePi-80" vertex="1">
          <mxGeometry y="110" width="180" height="30" as="geometry" />
        </mxCell>
        <mxCell id="xDvOf03iOZYoTLvPdePi-91" value="" style="edgeStyle=orthogonalEdgeStyle;fontSize=12;html=1;endArrow=ERmandOne;startArrow=ERmandOne;rounded=0;entryX=0;entryY=0.5;entryDx=0;entryDy=0;exitX=1;exitY=0.5;exitDx=0;exitDy=0;" parent="1" source="xDvOf03iOZYoTLvPdePi-10" target="xDvOf03iOZYoTLvPdePi-69" edge="1">
          <mxGeometry width="100" height="100" relative="1" as="geometry">
            <mxPoint x="960" y="1100" as="sourcePoint" />
            <mxPoint x="1060" y="1000" as="targetPoint" />
          </mxGeometry>
        </mxCell>
        <mxCell id="xDvOf03iOZYoTLvPdePi-98" value="" style="edgeStyle=orthogonalEdgeStyle;fontSize=12;html=1;endArrow=ERmandOne;startArrow=ERmandOne;rounded=0;exitX=1.01;exitY=0.19;exitDx=0;exitDy=0;exitPerimeter=0;entryX=0;entryY=0.5;entryDx=0;entryDy=0;" parent="1" source="xDvOf03iOZYoTLvPdePi-6" target="xDvOf03iOZYoTLvPdePi-60" edge="1">
          <mxGeometry width="100" height="100" relative="1" as="geometry">
            <mxPoint x="1090" y="1630" as="sourcePoint" />
            <mxPoint x="1190" y="1530" as="targetPoint" />
          </mxGeometry>
        </mxCell>
        <mxCell id="xDvOf03iOZYoTLvPdePi-103" value="MeetingParticipant" style="swimlane;fontStyle=0;childLayout=stackLayout;horizontal=1;startSize=30;horizontalStack=0;resizeParent=1;resizeParentMax=0;resizeLast=0;collapsible=1;marginBottom=0;whiteSpace=wrap;html=1;" parent="1" vertex="1">
          <mxGeometry x="1310" y="1490" width="180" height="160" as="geometry" />
        </mxCell>
        <mxCell id="xDvOf03iOZYoTLvPdePi-104" value="id: integer not null serial primary key" style="text;strokeColor=none;fillColor=none;align=left;verticalAlign=middle;spacingLeft=4;spacingRight=4;overflow=hidden;points=[[0,0.5],[1,0.5]];portConstraint=eastwest;rotatable=0;whiteSpace=wrap;html=1;" parent="xDvOf03iOZYoTLvPdePi-103" vertex="1">
          <mxGeometry y="30" width="180" height="40" as="geometry" />
        </mxCell>
        <mxCell id="xDvOf03iOZYoTLvPdePi-105" value="meeting_room_booking_id: integer not null references meeting_room_booking(id)" style="text;strokeColor=none;fillColor=none;align=left;verticalAlign=middle;spacingLeft=4;spacingRight=4;overflow=hidden;points=[[0,0.5],[1,0.5]];portConstraint=eastwest;rotatable=0;whiteSpace=wrap;html=1;" parent="xDvOf03iOZYoTLvPdePi-103" vertex="1">
          <mxGeometry y="70" width="180" height="50" as="geometry" />
        </mxCell>
        <mxCell id="xDvOf03iOZYoTLvPdePi-106" value="employee_id: integer not null references employee(id)" style="text;strokeColor=none;fillColor=none;align=left;verticalAlign=middle;spacingLeft=4;spacingRight=4;overflow=hidden;points=[[0,0.5],[1,0.5]];portConstraint=eastwest;rotatable=0;whiteSpace=wrap;html=1;" parent="xDvOf03iOZYoTLvPdePi-103" vertex="1">
          <mxGeometry y="120" width="180" height="40" as="geometry" />
        </mxCell>
        <mxCell id="3fzJiu1A7rny30VJ5f8J-3" value="" style="edgeStyle=orthogonalEdgeStyle;fontSize=12;html=1;endArrow=ERzeroToMany;startArrow=ERmandOne;rounded=0;exitX=1;exitY=0.5;exitDx=0;exitDy=0;entryX=0;entryY=0.5;entryDx=0;entryDy=0;" edge="1" parent="1" source="xDvOf03iOZYoTLvPdePi-11" target="xDvOf03iOZYoTLvPdePi-39">
          <mxGeometry width="100" height="100" relative="1" as="geometry">
            <mxPoint x="960" y="1269" as="sourcePoint" />
            <mxPoint x="1060" y="1169" as="targetPoint" />
          </mxGeometry>
        </mxCell>
        <mxCell id="3fzJiu1A7rny30VJ5f8J-4" value="" style="edgeStyle=orthogonalEdgeStyle;fontSize=12;html=1;endArrow=ERoneToMany;startArrow=ERmandOne;rounded=0;exitX=1;exitY=0.5;exitDx=0;exitDy=0;entryX=1;entryY=0.5;entryDx=0;entryDy=0;" edge="1" parent="1" source="xDvOf03iOZYoTLvPdePi-37" target="xDvOf03iOZYoTLvPdePi-105">
          <mxGeometry width="100" height="100" relative="1" as="geometry">
            <mxPoint x="1380" y="1430" as="sourcePoint" />
            <mxPoint x="1480" y="1330" as="targetPoint" />
            <Array as="points">
              <mxPoint x="1520" y="1240" />
              <mxPoint x="1520" y="1585" />
            </Array>
          </mxGeometry>
        </mxCell>
        <mxCell id="3fzJiu1A7rny30VJ5f8J-5" value="" style="edgeStyle=orthogonalEdgeStyle;fontSize=12;html=1;endArrow=ERoneToMany;startArrow=ERmandOne;rounded=0;entryX=1;entryY=0.5;entryDx=0;entryDy=0;exitX=1;exitY=0.5;exitDx=0;exitDy=0;" edge="1" parent="1" source="xDvOf03iOZYoTLvPdePi-14" target="xDvOf03iOZYoTLvPdePi-106">
          <mxGeometry width="100" height="100" relative="1" as="geometry">
            <mxPoint x="1490" y="1740" as="sourcePoint" />
            <mxPoint x="1700" y="1705" as="targetPoint" />
            <Array as="points">
              <mxPoint x="1520" y="1790" />
              <mxPoint x="1520" y="1630" />
            </Array>
          </mxGeometry>
        </mxCell>
        <mxCell id="3fzJiu1A7rny30VJ5f8J-6" value="" style="edgeStyle=orthogonalEdgeStyle;fontSize=12;html=1;endArrow=ERoneToMany;startArrow=ERmandOne;rounded=0;entryX=1;entryY=0.5;entryDx=0;entryDy=0;exitX=1;exitY=0.5;exitDx=0;exitDy=0;" edge="1" parent="1" source="xDvOf03iOZYoTLvPdePi-51" target="xDvOf03iOZYoTLvPdePi-57">
          <mxGeometry width="100" height="100" relative="1" as="geometry">
            <mxPoint x="1440" y="1800" as="sourcePoint" />
            <mxPoint x="1500" y="1640" as="targetPoint" />
            <Array as="points">
              <mxPoint x="1780" y="1830" />
              <mxPoint x="1780" y="1630" />
            </Array>
          </mxGeometry>
        </mxCell>
        <mxCell id="3fzJiu1A7rny30VJ5f8J-7" value="" style="edgeStyle=orthogonalEdgeStyle;fontSize=12;html=1;endArrow=ERoneToMany;startArrow=ERmandOne;rounded=0;entryX=1;entryY=0.5;entryDx=0;entryDy=0;" edge="1" parent="1">
          <mxGeometry width="100" height="100" relative="1" as="geometry">
            <mxPoint x="1570" y="1830" as="sourcePoint" />
            <mxPoint x="1430" y="1830" as="targetPoint" />
            <Array as="points">
              <mxPoint x="1510" y="1830" />
              <mxPoint x="1510" y="1830" />
            </Array>
          </mxGeometry>
        </mxCell>
        <mxCell id="3fzJiu1A7rny30VJ5f8J-9" value="" style="edgeStyle=orthogonalEdgeStyle;fontSize=12;html=1;endArrow=ERoneToMany;startArrow=ERmandOne;rounded=0;entryX=1;entryY=0.5;entryDx=0;entryDy=0;" edge="1" parent="1">
          <mxGeometry width="100" height="100" relative="1" as="geometry">
            <mxPoint x="1250" y="1789.58" as="sourcePoint" />
            <mxPoint x="1110" y="1789.58" as="targetPoint" />
            <Array as="points">
              <mxPoint x="1190" y="1789.58" />
              <mxPoint x="1190" y="1789.58" />
            </Array>
          </mxGeometry>
        </mxCell>
        <mxCell id="3fzJiu1A7rny30VJ5f8J-10" value="" style="edgeStyle=orthogonalEdgeStyle;fontSize=12;html=1;endArrow=ERoneToMany;startArrow=ERmandOne;rounded=0;entryX=0;entryY=0.5;entryDx=0;entryDy=0;exitX=1.009;exitY=0.696;exitDx=0;exitDy=0;exitPerimeter=0;" edge="1" parent="1" source="xDvOf03iOZYoTLvPdePi-6" target="xDvOf03iOZYoTLvPdePi-34">
          <mxGeometry width="100" height="100" relative="1" as="geometry">
            <mxPoint x="900" y="1879.17" as="sourcePoint" />
            <mxPoint x="760" y="1879.17" as="targetPoint" />
            <Array as="points">
              <mxPoint x="880" y="1688" />
              <mxPoint x="880" y="1830" />
            </Array>
          </mxGeometry>
        </mxCell>
        <mxCell id="3fzJiu1A7rny30VJ5f8J-11" value="" style="edgeStyle=orthogonalEdgeStyle;fontSize=12;html=1;endArrow=ERzeroToMany;startArrow=ERmandOne;rounded=0;entryX=0;entryY=0.5;entryDx=0;entryDy=0;exitX=1;exitY=0.5;exitDx=0;exitDy=0;" edge="1" parent="1" source="xDvOf03iOZYoTLvPdePi-19" target="xDvOf03iOZYoTLvPdePi-16">
          <mxGeometry width="100" height="100" relative="1" as="geometry">
            <mxPoint x="940" y="2020" as="sourcePoint" />
            <mxPoint x="1040" y="1920" as="targetPoint" />
            <Array as="points">
              <mxPoint x="1170" y="2020" />
              <mxPoint x="1170" y="1875" />
            </Array>
          </mxGeometry>
        </mxCell>
        <mxCell id="3fzJiu1A7rny30VJ5f8J-12" value="" style="edgeStyle=orthogonalEdgeStyle;fontSize=12;html=1;endArrow=ERoneToMany;startArrow=ERmandOne;rounded=0;" edge="1" parent="1">
          <mxGeometry width="100" height="100" relative="1" as="geometry">
            <mxPoint x="760" y="2020" as="sourcePoint" />
            <mxPoint x="540" y="2020" as="targetPoint" />
            <Array as="points">
              <mxPoint x="560" y="2020" />
            </Array>
          </mxGeometry>
        </mxCell>
        <mxCell id="3fzJiu1A7rny30VJ5f8J-13" value="" style="edgeStyle=orthogonalEdgeStyle;fontSize=12;html=1;endArrow=ERoneToMany;startArrow=ERmandOne;rounded=0;entryX=0;entryY=0.5;entryDx=0;entryDy=0;exitX=1.013;exitY=0.746;exitDx=0;exitDy=0;exitPerimeter=0;" edge="1" parent="1" source="xDvOf03iOZYoTLvPdePi-2" target="xDvOf03iOZYoTLvPdePi-23">
          <mxGeometry width="100" height="100" relative="1" as="geometry">
            <mxPoint x="590" y="1800" as="sourcePoint" />
            <mxPoint x="370" y="1800" as="targetPoint" />
          </mxGeometry>
        </mxCell>
        <mxCell id="3fzJiu1A7rny30VJ5f8J-15" value="" style="edgeStyle=orthogonalEdgeStyle;fontSize=12;html=1;endArrow=ERzeroToMany;startArrow=ERmandOne;rounded=0;entryX=0;entryY=0.5;entryDx=0;entryDy=0;exitX=1;exitY=0.5;exitDx=0;exitDy=0;" edge="1" parent="1" source="xDvOf03iOZYoTLvPdePi-2" target="xDvOf03iOZYoTLvPdePi-82">
          <mxGeometry width="100" height="100" relative="1" as="geometry">
            <mxPoint x="330" y="1690" as="sourcePoint" />
            <mxPoint x="380" y="1600" as="targetPoint" />
          </mxGeometry>
        </mxCell>
        <mxCell id="3fzJiu1A7rny30VJ5f8J-16" value="" style="edgeStyle=orthogonalEdgeStyle;fontSize=12;html=1;endArrow=ERoneToMany;startArrow=ERmandOne;rounded=0;exitX=0;exitY=0.5;exitDx=0;exitDy=0;entryX=0;entryY=0.5;entryDx=0;entryDy=0;" edge="1" parent="1" source="xDvOf03iOZYoTLvPdePi-81" target="xDvOf03iOZYoTLvPdePi-75">
          <mxGeometry width="100" height="100" relative="1" as="geometry">
            <mxPoint x="530" y="1410" as="sourcePoint" />
            <mxPoint x="630" y="1310" as="targetPoint" />
            <Array as="points">
              <mxPoint x="320" y="1480" />
              <mxPoint x="320" y="1195" />
            </Array>
          </mxGeometry>
        </mxCell>
        <mxCell id="3fzJiu1A7rny30VJ5f8J-18" value="" style="edgeStyle=orthogonalEdgeStyle;fontSize=12;html=1;endArrow=ERzeroToMany;startArrow=ERmandOne;rounded=0;entryX=0;entryY=0.5;entryDx=0;entryDy=0;" edge="1" parent="1" target="xDvOf03iOZYoTLvPdePi-11">
          <mxGeometry width="100" height="100" relative="1" as="geometry">
            <mxPoint x="540" y="1480" as="sourcePoint" />
            <mxPoint x="650" y="1210" as="targetPoint" />
            <Array as="points">
              <mxPoint x="590" y="1480" />
              <mxPoint x="590" y="1210" />
            </Array>
          </mxGeometry>
        </mxCell>
        <mxCell id="3fzJiu1A7rny30VJ5f8J-19" value="" style="edgeStyle=orthogonalEdgeStyle;fontSize=12;html=1;endArrow=ERzeroToMany;startArrow=ERmandOne;rounded=0;entryX=0;entryY=0.5;entryDx=0;entryDy=0;" edge="1" parent="1" target="xDvOf03iOZYoTLvPdePi-7">
          <mxGeometry width="100" height="100" relative="1" as="geometry">
            <mxPoint x="540" y="1490" as="sourcePoint" />
            <mxPoint x="640" y="1724.0000406901042" as="targetPoint" />
            <Array as="points">
              <mxPoint x="590" y="1490" />
              <mxPoint x="590" y="1720" />
            </Array>
          </mxGeometry>
        </mxCell>
      </root>
    </mxGraphModel>
  </diagram>
</mxfile>
